<svg width="24" height="24" viewBox="0 0 24 24" fill="none" xmlns="http://www.w3.org/2000/svg"><path fill-rule="evenodd" clip-rule="evenodd" d="M14.912 9.54c3.107 0 6.814.004 7.502.005H22.563c.3 0 .667.007.932.156.337.188.505.421.505.702V19h-4.13v-7.326h-3.214V19h-4.13v-7.326l-2.89-.015.012 7.245h-4.13v-6.421c.89-1.501 2.682-2.916 5.031-2.938.324-.003 1.467-.004 2.927-.005h1.436zM0 9.637c1.73.317 3.214 1.382 4.13 2.863v6.421H0V9.637zM4.65 5c1.387 0 2.51 1.145 2.51 2.557s-1.123 2.557-2.51 2.557c-1.386 0-2.51-1.145-2.51-2.557S3.265 5 4.65 5z" fill="#A7AAAC"/></svg>