<svg width="24" height="24" viewBox="0 0 24 24" fill="none" xmlns="http://www.w3.org/2000/svg"><path d="M22.527 9.544c.306 0 .692.002.968.156.337.188.505.422.505.703V19h-4.13v-7.325h-3.214V19h-4.131v-7.325l-2.888-.016.011 7.245h-4.13v-6.422c.89-1.5 2.683-2.916 5.032-2.938 1.115-.01 11.977 0 11.977 0zM4.131 12.499v6.421H0V9.636c.846.16 1.65.496 2.361.989a6.262 6.262 0 0 1 1.77 1.874z" fill="#124668"/><path d="M7.16 7.557c0-.506-.146-1-.422-1.42a2.52 2.52 0 0 0-1.126-.942 2.467 2.467 0 0 0-1.45-.146 2.496 2.496 0 0 0-1.285.7c-.351.357-.59.812-.687 1.308a2.601 2.601 0 0 0 .142 1.478c.19.467.512.866.924 1.147a2.477 2.477 0 0 0 3.17-.317c.47-.48.735-1.13.735-1.808z" fill="#72BF44"/></svg>